<?xml version="1.0" encoding="UTF-8"?>
<svg width="30px" height="30px" viewBox="0 0 30 30" version="1.1" xmlns="http://www.w3.org/2000/svg" xmlns:xlink="http://www.w3.org/1999/xlink">
    <!-- Generator: Sketch 52.4 (67378) - http://www.bohemiancoding.com/sketch -->
    <title>CLOSE</title>
    <desc>Created with Sketch.</desc>
    <g id="Symbols" stroke="none" stroke-width="1" fill="none" fill-rule="evenodd">
        <g id="Шапка-сайта-светлая-лупа-мелкая" transform="translate(-1355.000000, -28.000000)">
            <g id="Шапка-сайта-Copy" opacity="0.876415308">
                <rect id="Path" x="0" y="0" width="1440" height="85"></rect>
            </g>
            <g id="CLOSE" transform="translate(1362.000000, 35.000000)" stroke="#FFFFFF" stroke-linecap="round" stroke-linejoin="round" stroke-width="2">
                <path d="M0,0 L16,16" id="Line-2"></path>
                <path d="M16,0 L0,16" id="Line-2"></path>
            </g>
            <path d="M494.296169,40.4221028 L493.388222,40.4221028 L493.072613,40.7354068 C494.187536,42.035504 494.865638,43.7209422 494.865638,45.5676062 C494.865638,49.6725745 491.538022,53 487.432819,53 C483.327616,53 480,49.6725745 480,45.5676062 C480,41.4626379 483.327616,38.1352124 487.432819,38.1352124 C489.279588,38.1352124 490.963979,38.812132 492.264151,39.9258476 L492.57976,39.6125436 L492.57976,38.706935 L498.295026,33 L500,34.7048768 L494.296169,40.4221028 L494.296169,40.4221028 Z M487.432819,40.4221028 C484.590051,40.4221028 482.287021,42.7250014 482.287021,45.5676062 C482.287021,48.4090675 484.590051,50.7131096 487.432819,50.7131096 C490.274443,50.7131096 492.578616,48.4090675 492.578616,45.5676062 C492.578616,42.7250014 490.274443,40.4221028 487.432819,40.4221028 L487.432819,40.4221028 Z" id="Shape-Copy" fill="#FFFFFF" transform="translate(932.500000, 43.000000) scale(1, -1) translate(-932.500000, -43.000000) "></path>
        </g>
    </g>
</svg>