<?xml version="1.0" encoding="UTF-8"?>
<svg width="22px" height="12px" viewBox="0 0 22 12" version="1.1" xmlns="http://www.w3.org/2000/svg" xmlns:xlink="http://www.w3.org/1999/xlink">
    <!-- Generator: Sketch 52.4 (67378) - http://www.bohemiancoding.com/sketch -->
    <title>MEASURE</title>
    <desc>Created with Sketch.</desc>
    <g id="Page-1" stroke="none" stroke-width="1" fill="none" fill-rule="evenodd">
        <g id="КАРТОЧКА-ТОВАРА-1024" transform="translate(-595.000000, -324.000000)">
            <g id="ОПИСАНИЕ" transform="translate(592.000000, 312.000000)">
                <g id="MEASURE" transform="translate(2.000000, 6.000000)">
                    <polygon id="Shape" points="0 0 24 0 24 24 0 24"></polygon>
                    <path d="M21,6 L3,6 C1.9,6 1,6.9 1,8 L1,16 C1,17.1 1.9,18 3,18 L21,18 C22.1,18 23,17.1 23,16 L23,8 C23,6.9 22.1,6 21,6 Z M21,16 L3,16 L3,8 L5,8 L5,12 L7,12 L7,8 L9,8 L9,12 L11,12 L11,8 L13,8 L13,12 L15,12 L15,8 L17,8 L17,12 L19,12 L19,8 L21,8 L21,16 Z" id="Shape" fill="#2B2A2A" fill-rule="nonzero"></path>
                </g>
            </g>
        </g>
    </g>
</svg>