<?xml version="1.0" encoding="UTF-8"?>
<svg width="30px" height="30px" viewBox="0 0 30 30" version="1.1" xmlns="http://www.w3.org/2000/svg" xmlns:xlink="http://www.w3.org/1999/xlink">
    <!-- Generator: Sketch 52.4 (67378) - http://www.bohemiancoding.com/sketch -->
    <title>SEARCH</title>
    <desc>Created with Sketch.</desc>
    <g id="Symbols" stroke="none" stroke-width="1" fill="none" fill-rule="evenodd">
        <g id="Шапка-1280" transform="translate(-1205.000000, -28.000000)">
            <rect id="Rectangle-4" fill="#0A0A0A" opacity="0" x="0" y="0" width="1280" height="85"></rect>
            <g id="Шапка-сайта-светлая-БЕЗ-ЧЕРТОЧКИ">
                <g id="Шапка-сайта-Copy" opacity="0.00255766369">
                    <polygon id="Path" points="0 0 1280 0 1280 85 0 85"></polygon>
                </g>
                <path d="M1224.29617,40.4221028 L1223.38822,40.4221028 L1223.07261,40.7354068 C1224.18754,42.035504 1224.86564,43.7209422 1224.86564,45.5676062 C1224.86564,49.6725745 1221.53802,53 1217.43282,53 C1213.32762,53 1210,49.6725745 1210,45.5676062 C1210,41.4626379 1213.32762,38.1352124 1217.43282,38.1352124 C1219.27959,38.1352124 1220.96398,38.812132 1222.26415,39.9258476 L1222.57976,39.6125436 L1222.57976,38.706935 L1228.29503,33 L1230,34.7048768 L1224.29617,40.4221028 L1224.29617,40.4221028 Z M1217.43282,40.4221028 C1214.59005,40.4221028 1212.28702,42.7250014 1212.28702,45.5676062 C1212.28702,48.4090675 1214.59005,50.7131096 1217.43282,50.7131096 C1220.27444,50.7131096 1222.57862,48.4090675 1222.57862,45.5676062 C1222.57862,42.7250014 1220.27444,40.4221028 1217.43282,40.4221028 L1217.43282,40.4221028 Z" id="Shape-Copy" fill="#FFFFFF" transform="translate(1220.000000, 43.000000) scale(1, -1) translate(-1220.000000, -43.000000) "></path>
            </g>
        </g>
    </g>
</svg>